# xmcd
#
# Track frame offsets:
#	182
#	15007
#	25555
#	36920
#	47205
#	55720
#	68870
#	82985
#	92697
#	104155
#	115102
#	124587
#	134370
#	142880
#	152165
#	162892
#	170327
#	179927
#
# Disc length: 2578 seconds
#
# Revision: 5
# Processed by: cddbd v1.5.2PL0 Copyright (c) Steve Scherf et al.
# Submitted via: audiograbber 1.83.01
#
DISCID=e70a1012
DTITLE=Elvis Presley - Elvis' Golden Records, Vol. 3
DYEAR=1963
DGENRE=Rock and Roll
TTITLE0=It's Now Or Never
TTITLE1=Stuck On You
TTITLE2=Fame and Fortune
TTITLE3=I Gotta Know
TTITLE4=Surrender
TTITLE5=I Feel So Bad
TTITLE6=Are You Lonesome Tonight?
TTITLE7=(Marie's The Name Of) His Latest Flame
TTITLE8=Little Sister
TTITLE9=Good Luck Charm
TTITLE10=Anything That's Part Of You
TTITLE11=She's Not You
TTITLE12=Wild In The Country
TTITLE13=Wooden Heart
TTITLE14=Girl Of My Best Friend, The
TTITLE15=Follow That Dream
TTITLE16=King Of The Whole Wide World
TTITLE17=Can't Help Falling In Love
EXTD=YEAR: 1997
EXTT0=
EXTT1=
EXTT2=
EXTT3=
EXTT4=
EXTT5=
EXTT6=
EXTT7=
EXTT8=
EXTT9=
EXTT10=
EXTT11=
EXTT12=
EXTT13=
EXTT14=
EXTT15=
EXTT16=
EXTT17=
PLAYORDER=
